<?xml version="1.0" standalone="no"?>
<!DOCTYPE svg PUBLIC "-//W3C//DTD SVG 20010904//EN"
 "http://www.w3.org/TR/2001/REC-SVG-20010904/DTD/svg10.dtd">
<svg version="1.0" xmlns="http://www.w3.org/2000/svg"
 width="500.000000pt" height="500.000000pt" viewBox="0 0 500.000000 500.000000"
 preserveAspectRatio="xMidYMid meet">

<g transform="translate(0.000000,500.000000) scale(0.100000,-0.100000)"
fill="#000000" stroke="none">
<path d="M2192 2980 c-1 -48 -6 -91 -12 -98 -5 -7 -3 -6 5 1 13 11 15 31 12
98 l-3 84 -2 -85z"/>
<path d="M2082 2908 l-2 -96 -59 -1 c-54 0 -60 2 -64 22 -4 22 -4 22 -6 -1 -1
-18 -6 -23 -23 -20 -21 3 -23 9 -26 86 l-3 82 -29 0 -30 0 0 -195 0 -195 30 0
30 0 0 80 c0 78 1 80 24 80 15 0 26 -7 29 -17 4 -17 5 -17 6 0 1 16 19 17 231
17 l230 0 0 -80 0 -80 35 0 35 0 0 195 0 195 -35 0 -35 0 0 -85 c0 -56 -4 -85
-11 -85 -7 0 -9 10 -7 24 4 17 1 23 -8 19 -7 -3 -13 -8 -12 -11 3 -28 -7 -30
-147 -30 l-144 1 -4 96 -3 96 -2 -97z"/>
<path d="M2553 2730 c0 -36 2 -50 4 -32 2 17 2 47 0 65 -2 17 -4 3 -4 -33z"/>
<path d="M2553 2555 c0 -33 2 -45 4 -27 2 18 2 45 0 60 -2 15 -4 0 -4 -33z"/>
<path d="M1953 2515 c0 -38 2 -53 4 -32 2 20 2 52 0 70 -2 17 -4 1 -4 -38z"/>
<path d="M2418 2493 c-2 -32 -2 -106 0 -165 l3 -108 30 0 29 0 0 70 0 70 181
-1 c200 0 227 -6 254 -59 8 -16 15 -40 15 -55 0 -21 4 -25 31 -25 31 0 31 0
24 43 -8 48 -20 73 -47 103 -19 21 -19 22 11 55 17 19 31 45 31 59 0 14 3 35
6 48 6 19 3 22 -25 22 -27 0 -31 -4 -31 -26 0 -32 -33 -89 -58 -99 -21 -9
-338 -17 -369 -10 -21 5 -23 11 -23 70 l0 65 -30 0 c-28 0 -29 -1 -32 -57z"/>
<path d="M2084 2385 c0 -49 1 -71 3 -48 2 23 2 64 0 90 -2 26 -3 8 -3 -42z"/>
<path d="M2385 2460 c3 -5 8 -10 11 -10 2 0 4 5 4 10 0 6 -5 10 -11 10 -5 0
-7 -4 -4 -10z"/>
<path d="M2359 2433 c-13 -16 -12 -17 4 -4 9 7 17 15 17 17 0 8 -8 3 -21 -13z"/>
<path d="M2172 2415 c12 -15 18 -44 21 -105 l3 -85 2 86 c2 78 0 88 -20 105
-23 19 -23 19 -6 -1z"/>
<path d="M2690 2301 c0 -6 4 -13 10 -16 6 -3 7 1 4 9 -7 18 -14 21 -14 7z"/>
</g>
</svg>
